HIERARCHY
ROOT Hips
{
	OFFSET 0.00000 0.00000 0.00000
	CHANNELS 6 Xposition Yposition Zposition Zrotation Yrotation Xrotation 
	JOINT LHipJoint
	{
		OFFSET 0 0 0
		CHANNELS 3 Zrotation Yrotation Xrotation
		JOINT LeftHip
		{
			OFFSET 1.28858 -1.83292 1.03970
			CHANNELS 3 Zrotation Yrotation Xrotation
			JOINT LeftKnee
			{
				OFFSET 2.47846 -6.80952 0.00000
				CHANNELS 3 Zrotation Yrotation Xrotation
				JOINT LeftAnkle
				{
					OFFSET 2.75274 -7.56311 0.00000
					CHANNELS 3 Zrotation Yrotation Xrotation
					JOINT LeftToe
					{
						OFFSET 0.12848 -0.35301 1.68223
						CHANNELS 3 Zrotation Yrotation Xrotation
						End Site
						{
							OFFSET 0.00000 -0.00000 0.87311
						}
					}
				}
			}
		}
	}
	JOINT RHipJoint
	{
		OFFSET 0 0 0
		CHANNELS 3 Zrotation Yrotation Xrotation
		JOINT RightHip
		{
			OFFSET -1.31183 -1.83292 1.03970
			CHANNELS 3 Zrotation Yrotation Xrotation
			JOINT RightKnee
			{
				OFFSET -2.44740 -6.72417 0.00000
				CHANNELS 3 Zrotation Yrotation Xrotation
				JOINT RightAnkle
				{
					OFFSET -2.67343 -7.34519 0.00000
					CHANNELS 3 Zrotation Yrotation Xrotation
					JOINT RightToe
					{
						OFFSET -0.16914 -0.46471 1.77626
						CHANNELS 3 Zrotation Yrotation Xrotation
						End Site
						{
							OFFSET -0.00000 -0.00000 0.92777
						}
					}
				}
			}
		}
	}
	JOINT lowerback
	{
		OFFSET 0 0 0
		CHANNELS 3 Zrotation Yrotation Xrotation
		JOINT Chest
		{
			OFFSET 0.01249 2.14252 0.03842
			CHANNELS 3 Zrotation Yrotation Xrotation
			JOINT Chest2
			{
				OFFSET -0.02957 2.14199 -0.03751
				CHANNELS 3 Zrotation Yrotation Xrotation
				JOINT lowerneck
				{
					OFFSET 0 0 0
					CHANNELS 3 Zrotation Yrotation Xrotation
					JOINT Neck
					{
						OFFSET -0.01678 1.65709 -0.05476
						CHANNELS 3 Zrotation Yrotation Xrotation
						JOINT Head
						{
							OFFSET 0.07912 1.58331 -0.11843
							CHANNELS 3 Zrotation Yrotation Xrotation
							End Site
							{
								OFFSET 0.03298 1.73940 -0.04271
							}
						}
					}
				}
				JOINT LeftCollar
				{
					OFFSET 0 0 0
					CHANNELS 3 Zrotation Yrotation Xrotation
					JOINT LeftShoulder
					{
						OFFSET 3.39556 1.16496 0.08673
CHANNELS 3 Zrotation Xrotation Yrotation
						JOINT LeftElbow
						{
OFFSET 0 -5.239100 -0.000000
CHANNELS 3 Zrotation Xrotation Yrotation
							JOINT LeftWrist
							{
OFFSET 0 -3.314670 0.000000
CHANNELS 3 Zrotation Xrotation Yrotation
								JOINT lhand
								{
									OFFSET 0 0 0
CHANNELS 3 Zrotation Xrotation Yrotation
									JOINT LFingers
									{
OFFSET 0 -0.965900 0.000000
CHANNELS 3 Zrotation Xrotation Yrotation
										End Site
										{
OFFSET 0 -0.778730 0.000000
										}
									}
								}
								JOINT LThumb
								{
OFFSET 0 0.000000 0.000000
CHANNELS 3 Zrotation Xrotation Yrotation
									End Site
									{
OFFSET 0 -0.790620 0.790620
									}
								}
							}
						}
					}
				}
				JOINT RightCollar
				{
					OFFSET 0 0 0
					CHANNELS 3 Zrotation Yrotation Xrotation
					JOINT RightShoulder
					{
						OFFSET -3.27193 1.31331 0.33940
CHANNELS 3 Zrotation Xrotation Yrotation
						JOINT RightElbow
						{
OFFSET 0 -5.302520 0.000000
CHANNELS 3 Zrotation Xrotation Yrotation
							JOINT RightWrist
							{
OFFSET 0 -3.678750 0.000000
CHANNELS 3 Zrotation Xrotation Yrotation
								JOINT rhand
								{
									OFFSET 0 0 0
CHANNELS 3 Zrotation Xrotation Yrotation
									JOINT RFingers
									{
OFFSET 0 -0.594810 0.000000
CHANNELS 3 Zrotation Xrotation Yrotation
										End Site
										{
OFFSET 0 -0.479550 0.000000
										}
									}
								}
								JOINT RThumb
								{
OFFSET 0 0.000000 0.000000
CHANNELS 3 Zrotation Xrotation Yrotation
									End Site
									{
OFFSET 0 -0.486870 0.486870
									}
								}
							}
						}
					}
				}
			}
		}
	}
}
MOTION
Frames: 8
Frame Time: 0.008333333333333333
9.105688 7.362149 5.903818 -179.003868 -3.512796 4.185736 0.000000 0.000000 0.000000 46.875656 4.303546 -48.861403 0.180337 2.729225 7.526152 2.907065 -10.454986 -30.750346 6.959086 15.296869 48.718621 0.000000 0.000000 0.000000 -54.777468 9.107721 -50.650865 -0.026946 -1.053190 2.895241 -3.783221 -20.384167 -47.585064 -2.035511 -8.939600 25.606498 0.169120 0.870618 31.163961 -2.511817 -0.463986 19.586273 -2.784318 -1.857165 5.170340 -1.878731 -2.113436 -10.301836 -2.936984 -1.003114 30.097037 -0.735766 -0.285085 11.481968 0.000000 0.000000 0.000000 137.276512 -62.054846 100.696917 128.408216 -53.617551 92.549416 94.838003 112.245321 -31.143360 0.000000 0.000000 0.000000 -7.125000 0.000000 0.000000 43.820966 -58.530852 62.110377 0.000000 0.000000 0.000000 -128.373163 -71.455785 -102.119329 -133.108449 -51.661464 -96.286473 -84.999078 101.208360 48.195664 0.000000 0.000000 0.000000 7.125000 0.000000 0.000000 -156.179647 -63.957059 -168.736511
9.102013 7.049333 5.589739 -179.070419 -4.097242 6.768263 0.000000 0.000000 0.000000 45.860786 6.146061 -49.219505 0.248896 3.203965 8.847584 2.595256 -9.856003 -28.997575 6.878200 15.228480 48.412222 0.000000 0.000000 0.000000 -54.028445 8.152744 -51.296057 -0.040407 -1.294192 3.558614 -3.340262 -19.556226 -45.281763 -2.432534 -9.699842 28.021767 -0.069754 1.095566 31.253906 -2.595112 -0.413294 19.640537 -2.765278 -1.927516 5.198818 -2.560010 -2.135544 -10.797358 -2.219104 -1.099740 29.453208 -0.375489 -0.368408 11.344966 0.000000 0.000000 0.000000 138.488621 -61.078788 102.391604 128.038279 -53.756479 92.251277 95.249260 113.297944 -30.793394 0.000000 0.000000 0.000000 -7.125000 0.000000 0.000000 44.955823 -58.956309 63.576857 0.000000 0.000000 0.000000 -131.739006 -71.136200 -105.602762 -132.698029 -51.847619 -95.964267 -82.845936 98.294173 47.727719 0.000000 0.000000 0.000000 7.125000 0.000000 0.000000 -153.938820 -65.754624 -166.517945
9.105055 6.723634 5.288125 -179.216578 -4.424736 9.524017 0.000000 0.000000 0.000000 44.720229 8.082536 -49.994151 0.337751 3.731708 10.323378 2.236280 -8.461138 -26.878472 6.919787 15.263942 48.570362 0.000000 0.000000 0.000000 -53.828374 7.590727 -51.467367 -0.055334 -1.517389 4.173690 -2.961590 -19.654206 -43.813339 -2.191921 -9.250581 26.585538 -0.270098 1.233633 31.166199 -2.640640 -0.451066 19.654192 -2.705921 -2.025957 5.245794 -2.589464 -2.081494 -11.782255 -2.101672 -1.042037 29.139050 -0.335349 -0.382076 11.423818 0.000000 0.000000 0.000000 139.640597 -60.245578 103.921776 127.577927 -53.926688 91.879674 95.219623 113.864237 -30.296486 0.000000 0.000000 0.000000 -7.125000 0.000000 0.000000 45.482713 -58.806982 64.437340 0.000000 0.000000 0.000000 -134.029032 -70.662312 -108.179939 -132.622274 -51.881537 -95.904708 -80.465548 94.554480 47.248313 0.000000 0.000000 0.000000 7.125000 0.000000 0.000000 -151.276971 -67.731670 -163.774359
9.104353 6.386083 4.986672 -179.550476 -4.597108 12.137666 0.000000 0.000000 0.000000 44.067427 9.370935 -50.429228 0.426636 4.190796 11.614222 2.039562 -6.867861 -25.705210 6.846624 15.201422 48.291953 0.000000 0.000000 0.000000 -52.302745 6.299847 -51.982648 -0.084413 -1.873251 5.155571 -2.280579 -19.482691 -40.702090 -2.307675 -9.477522 27.302353 -0.192962 1.281585 31.334386 -2.688656 -0.561381 19.705749 -2.778516 -2.154162 5.234252 -2.386904 -1.955828 -12.907222 -2.094543 -0.909236 28.827300 -0.367162 -0.353463 11.528513 0.000000 0.000000 0.000000 141.075744 -59.381639 105.486356 127.130101 -54.089302 91.517294 94.482448 112.423367 -30.194038 0.000000 0.000000 0.000000 -7.125000 0.000000 0.000000 44.274389 -57.857929 63.117666 0.000000 0.000000 0.000000 -136.597588 -70.237797 -110.991956 -132.298332 -52.025295 -95.649620 -78.648603 91.833262 47.118416 0.000000 0.000000 0.000000 7.125000 0.000000 0.000000 -149.545588 -69.193535 -161.751055
9.106862 6.038513 4.698471 -179.920279 -4.508459 14.901833 0.000000 0.000000 0.000000 43.320020 10.655459 -51.187835 0.538866 4.698016 13.050176 1.871496 -6.128130 -24.632737 6.819142 15.177641 48.186852 0.000000 0.000000 0.000000 -51.239562 5.255797 -52.115929 -0.111706 -2.150168 5.921125 -2.050952 -18.532191 -38.786617 -2.611701 -10.033749 29.090152 -0.384566 0.555578 31.363016 -2.961722 -0.678557 19.798065 -2.860075 -1.365144 5.323898 -2.689152 -1.963404 -13.945594 -1.572580 -1.015843 28.236020 -0.154909 -0.430968 11.515821 0.000000 0.000000 0.000000 142.649543 -58.580934 107.155951 126.843059 -54.192006 91.284698 93.136019 109.447217 -30.109807 0.000000 0.000000 0.000000 -7.125000 0.000000 0.000000 42.095872 -56.095969 60.622078 0.000000 0.000000 0.000000 -139.192167 -69.498353 -113.553441 -131.830460 -52.229993 -95.280293 -77.933956 90.348794 46.646112 0.000000 0.000000 0.000000 7.125000 0.000000 0.000000 -147.786844 -69.830631 -160.168752
9.098350 5.681073 4.422058 -181.169952 -4.136550 18.192328 0.000000 0.000000 0.000000 43.120242 12.652030 -52.733903 0.704445 5.355132 14.926453 1.621751 -5.205342 -22.943549 6.690169 15.063842 47.689838 0.000000 0.000000 0.000000 -48.946103 3.882898 -52.734632 -0.161184 -2.579058 7.109373 -1.537457 -18.589605 -36.221567 -2.268290 -9.401751 27.062039 -0.537710 -2.274568 31.040413 -3.919153 -0.558592 19.898804 -3.502173 2.128096 5.556825 -2.424517 -2.063297 -15.969134 -1.272677 -1.367657 27.493512 -0.172021 -0.620870 11.636750 0.000000 0.000000 0.000000 145.276803 -58.209953 109.785950 126.914899 -54.166458 91.342960 91.639157 106.084118 -30.044419 0.000000 0.000000 0.000000 -7.125000 0.000000 0.000000 39.812079 -54.093519 57.920817 0.000000 0.000000 0.000000 -140.979641 -67.691214 -115.140968 -131.853322 -52.219889 -95.298284 -76.818767 87.953026 45.995069 0.000000 0.000000 0.000000 7.125000 0.000000 0.000000 -145.048444 -70.803447 -157.617640
9.098267 5.331985 4.132234 -181.482943 -4.067611 21.407990 0.000000 0.000000 0.000000 42.068719 14.261235 -54.192744 0.893188 6.018149 16.838832 1.397095 -4.155150 -21.366844 6.552301 14.942800 47.159577 0.000000 0.000000 0.000000 -47.157596 1.856891 -54.082411 -0.258946 -3.249858 8.977156 -0.868491 -18.797357 -32.564419 -2.044437 -8.954893 25.656519 -0.310150 -2.203310 31.723714 -3.874363 -0.254066 19.403294 -3.668529 2.314219 4.759458 -2.075438 -2.125623 -18.282317 -0.761655 -1.698912 27.929887 -0.120926 -0.707984 12.283066 0.000000 0.000000 0.000000 147.592268 -59.114147 111.579956 127.046673 -54.119249 91.449691 91.369959 104.940997 -30.156596 0.000000 0.000000 0.000000 -7.125000 0.000000 0.000000 39.314025 -53.769592 57.265469 0.000000 0.000000 0.000000 -140.451228 -66.315070 -113.935243 -132.875111 -51.763045 -96.102123 -75.124939 84.381793 45.914119 0.000000 0.000000 0.000000 7.125000 0.000000 0.000000 -143.017769 -72.116741 -155.200442
9.110246 5.006692 3.812249 -178.951763 -5.315216 24.024287 0.000000 0.000000 0.000000 38.560117 14.468540 -54.695134 1.059204 6.540452 18.361934 1.341713 -4.084550 -20.936502 6.728012 15.098140 47.837290 0.000000 0.000000 0.000000 -47.761775 -1.406469 -56.421201 -0.461874 -4.331380 12.015047 -0.264757 -18.077578 -27.639637 -2.015008 -8.896669 25.473059 -1.800361 1.344471 33.889606 -3.087223 -0.065307 18.260043 -2.278643 -0.800895 2.720622 -1.949389 -2.032902 -18.829601 -0.465088 -1.717677 27.369352 -0.044456 -0.699598 12.171754 0.000000 0.000000 0.000000 147.513736 -60.519229 110.651750 128.015494 -53.762779 92.232380 90.188694 -22.243314 11.527172 0.000000 0.000000 0.000000 -7.125000 0.000000 0.000000 37.567986 -52.227155 55.012690 0.000000 0.000000 0.000000 -139.628900 -65.388706 -111.185413 -133.285381 -51.581000 -96.425286 -73.036699 80.472379 45.912485 0.000000 0.000000 0.000000 7.125000 0.000000 0.000000 -140.515678 -73.675654 -152.117656
